<?xml version="1.0" encoding="UTF-8"?><svg id="Layer_2" xmlns="http://www.w3.org/2000/svg" viewBox="0 0 125.78 123.51"><defs><style>.cls-1,.cls-2,.cls-3,.cls-4,.cls-5,.cls-6{stroke-width:0px;}.cls-1,.cls-3{fill:#2d282b;}.cls-2{fill:none;}.cls-3,.cls-6{fill-rule:evenodd;}.cls-4,.cls-6{fill:#fff;}.cls-5{fill:#ffd43a;}</style></defs><g id="Layer_1-2"><path class="cls-1" d="m0,62.89C0,28.16,28.16,0,62.89,0s62.89,28.16,62.89,62.89c0,28.91-19.5,53.26-46.07,60.62-5.94-2.62-11.92-6.29-17.05-11.42-5.08,5.08-10.99,8.73-16.87,11.34C19.36,115.98,0,91.7,0,62.89"/><path class="cls-4" d="m86.54,111.09s-14.52.17-23.67-8.99c-9.16,9.16-23.68,8.99-23.68,8.99,0,0,14.52,3.63,23.68-5.53,9.16,9.16,23.67,5.53,23.67,5.53"/><path class="cls-4" d="m49.66,104.74s-14.17.17-23.12-8.77c-8.94,8.94-23.12,8.77-23.12,8.77,0,0,14.17,3.54,23.12-5.4,8.94,8.94,23.12,5.4,23.12,5.4"/><path class="cls-4" d="m122.36,104.74s-14.17.17-23.12-8.77c-8.94,8.94-23.12,8.77-23.12,8.77,0,0,14.17,3.54,23.12-5.4,8.94,8.94,23.12,5.4,23.12,5.4"/><path class="cls-2" d="m0,62.89C0,28.16,28.16,0,62.89,0s62.89,28.16,62.89,62.89c0,28.91-19.5,53.26-46.07,60.62-5.94-2.62-11.92-6.29-17.05-11.42-5.08,5.08-10.99,8.73-16.87,11.34C19.36,115.98,0,91.7,0,62.89"/><path class="cls-5" d="m21.33,62.53c0-22.65,18.24-41.05,40.84-41.29v3.86c-3,.5-3.66,3.32-3.71,3.55l-.79.54v.57h.81v.59h8.29v-.59h.81l-.03-.57-.76-.54c-.05-.24-.72-3.05-3.71-3.55v-3.86c22.6.24,40.84,18.64,40.84,41.29,0,12.74-5.77,24.14-14.85,31.71-5.51-2.98-8.65-7.13-14.96-9.57l-1.59-4.95-1.99-.79-2.74-31.89,2.35-.91v-2.12s-2.62,0-2.62,0l-.25-2.92.88-1.12v-.59s0-1.51,0-1.51h-11.19s0,1.51,0,1.51v.59s.89,1.12.89,1.12l-.25,2.92h-2.63s0,1.54,0,1.54l.02.6,2.33.92c-.91,10.64-2.75,31.89-2.75,31.89l-1.98.79-1.6,5.01c-6.22,2.45-9.34,6.56-14.82,9.51-9.07-7.57-14.85-18.97-14.85-31.71"/><path class="cls-4" d="m59.66,34.03c0-1.63,1.32-2.96,2.96-2.96s2.96,1.32,2.96,2.96-1.32,2.96-2.96,2.96-2.96-1.32-2.96-2.96"/><polyline class="cls-4" points="20.65 85.68 13.95 89.87 14.4 90.58 19.75 87.24 16.62 94.14 17.05 94.82 23.74 90.63 23.3 89.92 17.93 93.27 21.08 86.36 20.65 85.68"/><path class="cls-6" d="m15.7,80.77l1.11,2.74-4.42.18,3.32-2.92m1.67-2.59l-6.24,5.64.27.66,8.41-.26-.34-.83-1.89.08-1.29-3.2,1.42-1.25-.34-.83Z"/><polyline class="cls-4" points="9.01 74.74 8.29 74.93 9.69 80.16 10.42 79.97 9.82 77.76 16.72 75.91 16.51 75.1 9.61 76.95 9.01 74.74"/><polyline class="cls-4" points="15.49 70.38 7.69 71.61 7.82 72.45 15.62 71.21 15.49 70.38"/><path class="cls-6" d="m10.84,63.83c1.65-.12,2.18-.1,2.73.37.38.32.62.8.66,1.32.04.52-.14,1.03-.47,1.4-.47.53-1,.63-2.65.74-1.65.12-2.18.1-2.73-.37-.38-.32-.62-.8-.66-1.32-.04-.52.14-1.03.47-1.4.47-.53,1-.63,2.65-.74m-.06-.84c-1.67.12-2.45.17-3.14.96-.49.57-.73,1.29-.68,2.07.05.78.39,1.46.96,1.96.79.69,1.57.63,3.24.52,1.67-.12,2.45-.17,3.14-.96.49-.57.73-1.29.68-2.07s-.39-1.46-.96-1.96c-.79-.69-1.57-.63-3.24-.52Z"/><polyline class="cls-4" points="15.54 54.5 7.7 53.54 7.6 54.37 13.87 55.14 7.09 58.53 6.99 59.33 14.83 60.29 14.94 59.45 8.65 58.68 15.45 55.29 15.54 54.5"/><path class="cls-6" d="m14.57,47.7l-.76,2.85-3.64-2.52,4.41-.34m2.89-1.06l-8.38.75-.18.69,6.88,4.85.23-.87-1.56-1.07.89-3.33,1.89-.15.23-.87Z"/><polyline class="cls-4" points="20.14 40.68 19.45 40.37 17.81 44.06 11.28 41.15 10.94 41.92 18.15 45.14 20.14 40.68"/><polyline class="cls-4" points="19.6 28.45 18.99 28.01 16.11 31.97 22.5 36.62 23 35.93 20.18 33.89 22.21 31.09 21.6 30.64 19.57 33.44 17.22 31.73 19.6 28.45"/><polyline class="cls-4" points="29.91 27.69 29.36 27.17 26.59 30.14 24.51 28.2 26.87 25.67 26.31 25.15 23.95 27.68 21.92 25.79 24.69 22.82 24.13 22.3 20.79 25.89 26.57 31.27 29.91 27.69"/><path class="cls-6" d="m32.82,20.28c.58.77,1.31,1.7,1.21,2.48-.07.58-.41,1.03-.89,1.39l-1.37,1.04-3.85-5.1,1.37-1.03c.49-.37,1.01-.56,1.59-.47.77.12,1.36.93,1.94,1.71m.67-.51c-.66-.88-1.35-1.87-2.5-2.03-.67-.09-1.38.12-2.04.62l-2.16,1.63,4.75,6.31,2.16-1.63c.66-.49,1.06-1.12,1.15-1.79.16-1.15-.71-2.23-1.37-3.11Z"/><polyline class="cls-4" points="42.13 19.38 41.76 18.72 38.21 20.69 36.83 18.19 39.86 16.51 39.49 15.85 36.46 17.53 35.11 15.1 38.66 13.13 38.3 12.47 34.01 14.85 37.84 21.75 42.13 19.38"/><path class="cls-6" d="m46.51,11.63c.31.91-.15,1.58-1.02,1.88l-1.99.69-.94-2.74,1.99-.69c.87-.3,1.65-.05,1.96.86m2.8,5.06l-2.94-2.78c.9-.53,1.31-1.47.94-2.56-.44-1.29-1.63-1.76-2.93-1.31l-2.86.99,2.57,7.47.8-.27-1.14-3.32,1.79-.62,2.84,2.73.93-.32Z"/><path class="cls-6" d="m54.48,12.93l-2.9.56.66-4.38,2.23,3.82m2.22,2.13l-4.35-7.2-.7.13-1.35,8.31.88-.17.28-1.87,3.39-.66.96,1.63.88-.17Z"/><polyline class="cls-4" points="61.69 7.57 61.63 6.82 56.23 7.2 56.29 7.95 58.57 7.79 59.06 14.92 59.91 14.86 59.41 7.73 61.69 7.57"/><polyline class="cls-4" points="64.74 14.83 65.02 6.94 64.17 6.91 63.9 14.8 64.74 14.83"/><path class="cls-6" d="m72.14,11.67c-.23,1.64-.36,2.16-.92,2.59-.39.3-.91.44-1.43.37-.52-.07-.98-.35-1.27-.75-.42-.58-.4-1.11-.17-2.75.23-1.64.36-2.16.92-2.59.39-.3.91-.44,1.43-.37s.98.35,1.27.75c.42.58.4,1.11.17,2.75m.84.12c.23-1.66.34-2.43-.29-3.27-.45-.6-1.11-.98-1.89-1.09-.78-.11-1.51.08-2.11.53-.84.63-.95,1.4-1.18,3.06-.23,1.66-.34,2.43.29,3.27.45.6,1.11.98,1.89,1.09.78.11,1.51-.08,2.11-.53.84-.63.95-1.4,1.18-3.06Z"/><polyline class="cls-4" points="80.31 18.04 82.75 10.52 81.95 10.26 80 16.27 77.96 8.97 77.2 8.72 74.76 16.23 75.56 16.49 77.52 10.47 79.55 17.79 80.31 18.04"/><path class="cls-6" d="m91.12,19.28c-.85,1.42-1.17,1.84-1.86,2.02-.48.13-1.01.05-1.46-.22-.45-.27-.77-.71-.88-1.19-.16-.69.06-1.18.91-2.6.85-1.42,1.17-1.84,1.86-2.02.48-.13,1.01-.05,1.46.22.45.27.77.71.88,1.19.16.69-.06,1.18-.91,2.6m.72.43c.86-1.44,1.26-2.1,1.01-3.12-.18-.73-.63-1.34-1.31-1.74-.68-.41-1.42-.52-2.15-.34-1.02.25-1.42.92-2.28,2.36-.86,1.44-1.26,2.1-1.01,3.12.18.73.63,1.34,1.31,1.74.68.4,1.42.52,2.15.34,1.02-.25,1.42-.92,2.28-2.36Z"/><polyline class="cls-4" points="100.05 22.15 100.54 21.57 96.78 18.42 91.71 24.47 92.35 25.01 94.59 22.35 97.24 24.57 97.73 23.99 95.08 21.77 96.94 19.54 100.05 22.15"/><polyline class="cls-4" points="107.37 30.35 107.96 29.88 104.87 26.07 98.74 31.04 99.27 31.69 101.97 29.5 104.15 32.19 104.74 31.72 102.56 29.03 104.82 27.2 107.37 30.35"/><polyline class="cls-4" points="103.19 37.06 109.82 32.76 109.36 32.05 102.73 36.35 103.19 37.06"/><path class="cls-4" d="m108.59,42.55c.59-.29.97-.73,1.11-1.28.11-.43.09-.82-.13-1.54l-.26-.84c-.12-.4-.16-.83-.08-1.15.08-.31.31-.55.66-.72.79-.38,1.58-.09,2.05.85.37.75.38,1.32.2,1.95l.73.25c.25-.88.19-1.59-.25-2.49-.69-1.41-1.91-1.88-3.11-1.3-.57.28-.92.67-1.06,1.18-.12.44-.08.97.1,1.57l.27.89c.17.56.2.77.11,1.09-.09.33-.35.59-.72.77-.83.4-1.63,0-2.13-1.03-.39-.8-.47-1.44-.17-2.31l-.77-.27c-.34.99-.27,1.82.25,2.89.72,1.48,1.96,2.08,3.21,1.47"/><polyline class="cls-4" points="109.17 50.58 116.68 48.13 116.42 47.33 113.05 48.43 111.9 44.86 115.26 43.77 115 42.96 107.49 45.41 107.75 46.21 111.18 45.09 112.34 48.66 108.91 49.77 109.17 50.58"/><polyline class="cls-4" points="117.77 60.29 118.52 60.23 118.09 55.34 110.22 56.03 110.3 56.87 113.77 56.57 114.07 60.02 114.82 59.95 114.52 56.5 117.41 56.25 117.77 60.29"/><path class="cls-6" d="m116.08,67.72c-.96-.07-1.39-.75-1.33-1.67l.15-2.1,2.89.2-.15,2.1c-.06.92-.6,1.54-1.56,1.47m-5.75.6l3.7-1.62c.14,1.03.84,1.78,1.99,1.86,1.36.09,2.26-.81,2.35-2.18l.21-3.02-7.88-.55-.06.84,3.5.24-.13,1.89-3.62,1.55-.07.99Z"/><polyline class="cls-4" points="109.91 71.08 117.71 72.31 117.84 71.48 110.04 70.24 109.91 71.08"/><polyline class="cls-4" points="108.15 78.27 108.88 78.47 109.93 74.55 112.69 75.28 111.79 78.63 112.52 78.82 113.42 75.48 116.1 76.2 115.05 80.12 115.78 80.32 117.05 75.58 109.42 73.54 108.15 78.27"/><path class="cls-6" d="m110.63,86.81c-.87-.41-1.03-1.2-.64-2.04l.89-1.91,2.62,1.22-.89,1.91c-.39.83-1.11,1.22-1.98.81m-5.58-1.5l4.04-.18c-.24,1.01.15,1.97,1.19,2.45,1.24.58,2.4.05,2.98-1.19l1.28-2.74-7.16-3.34-.36.76,3.18,1.48-.8,1.72-3.94.15-.42.9Z"/><path class="cls-4" d="m103.24,92.27c.55.36,1.13.46,1.67.29.42-.12.75-.34,1.25-.91l.58-.65c.28-.31.63-.57.94-.66.31-.09.63-.01.96.2.74.48.9,1.31.32,2.19-.45.7-.93,1.01-1.57,1.18l.16.75c.88-.24,1.46-.65,2.01-1.5.85-1.31.63-2.6-.49-3.34-.53-.34-1.05-.44-1.56-.3-.44.13-.87.43-1.29.89l-.62.69c-.39.44-.55.57-.88.66s-.69,0-1.03-.22c-.77-.5-.84-1.39-.21-2.36.48-.74.99-1.14,1.9-1.33l-.17-.8c-1.03.22-1.7.71-2.35,1.7-.89,1.38-.77,2.75.39,3.51"/><polyline class="cls-1" points="77.64 75.53 77.64 68.3 76.6 68.3 75.19 69.52 75.19 70.67 76.6 69.43 76.6 75.53 77.64 75.53"/><path class="cls-3" d="m83.25,70.42c0,.78-.46,1.25-1.11,1.25-.69,0-1.1-.54-1.1-1.25,0-.77.45-1.26,1.1-1.26s1.11.49,1.11,1.26m1.04-.02c0-1.34-.89-2.16-2.14-2.16s-2.13.87-2.13,2.2.84,2.09,1.89,2.09c.22,0,.46-.03.65-.11l-1.55,3.11h1.11l1.65-3.35c.31-.63.54-1.19.54-1.78Z"/><polyline class="cls-1" points="88.46 75.53 88.46 68.3 87.43 68.3 86.02 69.52 86.02 70.67 87.43 69.43 87.43 75.53 88.46 75.53"/><path class="cls-1" d="m95.12,73.5c0-.89-.4-1.43-1.02-1.71.56-.28.9-.77.9-1.54,0-1.2-.87-2.02-2.1-2.02-1.16,0-2.06.74-2.12,1.97h1.04c.05-.64.46-1.04,1.09-1.04.59,0,1.07.39,1.07,1.12,0,.66-.34,1.1-1.1,1.1h-.17v.9h.17c.81,0,1.21.46,1.21,1.19s-.51,1.2-1.18,1.2c-.6,0-1.14-.32-1.18-1.1h-1.04c.04,1.41,1.06,2.03,2.21,2.03s2.21-.71,2.21-2.1"/><polyline class="cls-1" points="36.59 75.53 36.59 74.55 33.07 74.55 33.07 72.37 36.07 72.37 36.07 71.4 33.07 71.4 33.07 69.29 36.59 69.29 36.59 68.3 31.97 68.3 31.97 75.53 36.59 75.53"/><path class="cls-1" d="m41.77,73.96c0-.91-.57-1.37-1.53-1.45l-.81-.07c-.55-.05-.71-.28-.71-.59,0-.39.31-.66.93-.66.49,0,.94.1,1.27.38l.65-.66c-.48-.42-1.14-.58-1.91-.58-1.08,0-1.94.57-1.94,1.57,0,.9.56,1.34,1.52,1.42l.82.07c.5.04.69.27.69.61,0,.49-.5.71-1.13.71-.51,0-1.07-.11-1.48-.54l-.68.68c.61.6,1.32.74,2.16.74,1.23,0,2.14-.56,2.14-1.64"/><path class="cls-1" d="m45.08,75.53v-.88h-.43c-.39,0-.57-.22-.57-.6v-2.78h1v-.79h-1v-1.56h-1.03v1.56h-.59v.79h.59v2.83c0,.74.45,1.43,1.41,1.43h.62"/><rect class="cls-1" x="46.37" y="74.29" width="1.24" height="1.24"/></g></svg>